<svg width="50" height="50" viewBox="0 0 50 50" fill="none" xmlns="http://www.w3.org/2000/svg">
<path d="M40.9565 29.4718C41.361 29.4718 41.689 29.1439 41.689 28.7393V27.8319C41.689 27.4274 41.361 27.0995 40.9565 27.0995C40.5521 27.0995 40.2241 27.4274 40.2241 27.8319V28.7393C40.2241 29.1439 40.5521 29.4718 40.9565 29.4718Z" fill="#D0004B"/>
<path d="M25.851 11.5284C26.2555 11.5284 26.5834 11.2006 26.5834 10.796C26.5834 10.3914 26.2555 10.0636 25.851 10.0636H9.40698C9.00249 10.0636 8.67456 10.3914 8.67456 10.796C8.67456 11.2005 9.00249 11.5284 9.40698 11.5284H25.851Z" fill="#D0004B"/>
<path d="M50 32.0372V26.8667C50 22.9137 46.784 19.6978 42.8311 19.6978H41.3731C40.9687 19.6978 40.6407 20.0256 40.6407 20.4302C40.6407 20.8348 40.9687 21.1626 41.3731 21.1626H42.8311C45.9764 21.1626 48.5352 23.7215 48.5352 26.8667V32.0372C48.5352 34.4749 46.9856 36.6435 44.6794 37.4333C44.3449 37.5479 44.14 37.8849 44.1923 38.2345C44.4835 40.183 45.4034 42.0247 46.7869 43.4299C43.6649 43.4012 40.8237 41.4338 39.702 38.5162L39.5847 38.211C39.476 37.9281 39.2042 37.7413 38.9011 37.7413H22.7575C19.6122 37.7413 17.0534 35.1824 17.0534 32.0372V26.8667C17.0534 23.7215 19.6123 21.1626 22.7575 21.1626H32.9422C32.9427 21.1626 32.9433 21.1627 32.9437 21.1627C32.9442 21.1627 32.9447 21.1626 32.9451 21.1626H37.3996C37.8041 21.1626 38.132 20.8348 38.132 20.4302C38.132 20.0256 37.8041 19.6978 37.3996 19.6978H34.0469C34.2865 18.9731 34.4115 18.2101 34.4115 17.4446V12.2742C34.4115 8.32114 31.1955 5.10522 27.2425 5.10522H7.16895C3.21602 5.10503 0 8.32104 0 12.2741C0 12.6787 0.32793 13.0065 0.732422 13.0065C1.13691 13.0065 1.46484 12.6787 1.46484 12.2741C1.46484 9.12886 4.02373 6.56997 7.16895 6.56997H27.2425C30.3877 6.56997 32.9467 9.12886 32.9467 12.2741V17.4445C32.9467 18.2309 32.7891 18.9865 32.4812 19.6977H22.7575C20.1648 19.6977 17.8894 21.0812 16.6302 23.1486H11.099C10.7959 23.1486 10.5241 23.3353 10.4153 23.6183L10.298 23.9234C9.17656 26.8405 6.33652 28.8077 3.21318 28.8372C4.5959 27.4332 5.51641 25.591 5.80771 23.6418C5.85996 23.2922 5.65508 22.9552 5.32061 22.8407C3.01436 22.0509 1.46484 19.8824 1.46484 17.4445V16.0491C1.46484 15.6445 1.13691 15.3166 0.732422 15.3166C0.32793 15.3166 0 15.6445 0 16.0491V17.4445C0 20.2942 1.68467 22.851 4.25225 23.9934C3.92344 25.4446 3.18164 26.7974 2.12822 27.8508C1.71602 28.263 1.59385 28.8773 1.81689 29.4158C2.03994 29.9544 2.56074 30.3024 3.14375 30.3024C4.99746 30.3024 6.78486 29.7476 8.31279 28.6981C9.79209 27.682 10.9258 26.2723 11.6002 24.6134H15.9532C15.7178 25.3225 15.5884 26.0795 15.5884 26.8666V32.0371C15.5884 35.99 18.8044 39.206 22.7573 39.206H38.3995C39.0738 40.865 40.2075 42.2745 41.6869 43.2907C43.2148 44.3402 45.0022 44.895 46.856 44.895C47.4389 44.895 47.9597 44.5469 48.1827 44.0084C48.4059 43.4699 48.2837 42.8555 47.8714 42.4433C46.818 41.39 46.0763 40.0371 45.7474 38.586C48.3152 37.4436 50 34.8867 50 32.0372Z" fill="#D0004B"/>
<path d="M9.40698 14.4786H22.4418C22.8463 14.4786 23.1743 14.1508 23.1743 13.7462C23.1743 13.3416 22.8463 13.0138 22.4418 13.0138H9.40698C9.00249 13.0138 8.67456 13.3416 8.67456 13.7462C8.67456 14.1507 9.00249 14.4786 9.40698 14.4786Z" fill="#D0004B"/>
<path d="M23.764 27.8319V28.7393C23.764 29.1439 24.092 29.4718 24.4965 29.4718C24.901 29.4718 25.2289 29.1439 25.2289 28.7393V27.8319C25.2289 27.4274 24.901 27.0995 24.4965 27.0995C24.092 27.0995 23.764 27.4273 23.764 27.8319Z" fill="#D0004B"/>
<path d="M33.7373 29.352C33.5609 29.7527 33.1641 30.0117 32.7264 30.0117C32.2886 30.0117 31.8919 29.7527 31.7156 29.3519C31.5527 28.9816 31.1205 28.8135 30.7503 28.9763C30.38 29.1392 30.2118 29.5714 30.3747 29.9417C30.7848 30.8741 31.7079 31.4765 32.7264 31.4765C33.7447 31.4765 34.6677 30.8742 35.078 29.942C35.241 29.5717 35.0728 29.1395 34.7026 28.9766C34.3323 28.8135 33.9002 28.9817 33.7373 29.352Z" fill="#D0004B"/>
<path d="M9.40698 17.4288H22.4418C22.8463 17.4288 23.1743 17.101 23.1743 16.6964C23.1743 16.2918 22.8463 15.964 22.4418 15.964H9.40698C9.00249 15.964 8.67456 16.2918 8.67456 16.6964C8.67456 17.1009 9.00249 17.4288 9.40698 17.4288Z" fill="#D0004B"/>
</svg>
