<svg width="50" height="50" viewBox="0 0 50 50" fill="none" xmlns="http://www.w3.org/2000/svg">
<path d="M16.1783 11.6702V12.5622C16.1783 12.9667 16.5063 13.2946 16.9108 13.2946C17.3153 13.2946 17.6432 12.9667 17.6432 12.5622V11.6702C17.6432 11.2656 17.3153 10.9377 16.9108 10.9377C16.5063 10.9377 16.1783 11.2656 16.1783 11.6702Z" fill="#D0004B"/>
<path d="M25.9821 13.1591C25.8108 13.5484 25.4253 13.8 25 13.8C24.5747 13.8 24.1892 13.5485 24.0179 13.159C23.855 12.7888 23.4226 12.6208 23.0526 12.7835C22.6822 12.9464 22.5142 13.3787 22.6771 13.749C23.0822 14.6699 23.9941 15.2649 25 15.2649C26.0059 15.2649 26.9177 14.6699 27.3228 13.7492C27.4857 13.3789 27.3177 12.9467 26.9474 12.7838C26.5773 12.6207 26.1449 12.7889 25.9821 13.1591Z" fill="#D0004B"/>
<path d="M32.3568 11.6702V12.5622C32.3568 12.9667 32.6846 13.2946 33.0892 13.2946C33.4938 13.2946 33.8217 12.9667 33.8217 12.5622V11.6702C33.8217 11.2656 33.4938 10.9377 33.0892 10.9377C32.6847 10.9377 32.3568 11.2656 32.3568 11.6702Z" fill="#D0004B"/>
<path d="M33.3605 32.3721H33.0958V29.9855C33.0958 27.9153 33.8738 25.9844 35.2867 24.5483C37.9583 21.8328 39.4296 18.2393 39.4296 14.4296C39.4296 11.8851 38.7579 9.3832 37.4873 7.19463C37.2842 6.84482 36.8359 6.72598 36.4861 6.92891C36.1363 7.13203 36.0173 7.58027 36.2204 7.93008C37.3615 9.89561 37.9646 12.1431 37.9646 14.4296C37.9646 17.8525 36.6427 21.0813 34.2423 23.5211C32.5584 25.2327 31.6309 27.5285 31.6309 29.9855V32.3721H28.0025V25.1096H29.2033C30.6731 25.1096 31.8688 23.9138 31.8688 22.4439C31.8688 20.9741 30.6731 19.7783 29.2033 19.7783C27.7335 19.7783 26.5377 20.9741 26.5377 22.4439V23.6447H23.4623V22.4439C23.4623 20.9741 22.2665 19.7783 20.7966 19.7783C19.3268 19.7783 18.1311 20.9741 18.1311 22.4439C18.1311 23.9138 19.3269 25.1096 20.7966 25.1096H21.9974V32.3721H18.3689V30.0275C18.3689 27.5483 17.4369 25.2328 15.7444 23.5077C13.2909 21.0066 11.9744 17.6977 12.0374 14.1905C12.0983 10.8057 13.4678 7.62051 15.8939 5.22178C18.3198 2.82314 21.5205 1.48896 24.9063 1.46514C24.9382 1.46484 24.9697 1.46475 25.0016 1.46475C28.5745 1.46475 31.8991 2.88525 34.3714 5.4707C34.6508 5.76309 35.1145 5.77324 35.4069 5.49385C35.6992 5.21426 35.7096 4.75068 35.43 4.4583C32.6784 1.58086 28.9787 0 25.002 0C24.9668 0 24.9313 0.000195313 24.896 0.000390625C21.1258 0.0270508 17.563 1.51143 14.8639 4.18018C12.1645 6.84932 10.6406 10.395 10.5727 14.1643C10.5026 18.0673 11.9678 21.7498 14.6987 24.5336C16.1209 25.9833 16.9041 27.9344 16.9041 30.0276V32.3722H16.6394C15.4566 32.3722 14.4942 33.3345 14.4942 34.5174V39.5133C14.4942 40.6961 15.4566 41.6585 16.6394 41.6585H18.1698C18.2552 42.4722 18.4834 43.2549 18.8524 43.9934C18.9807 44.2501 19.2394 44.3985 19.5082 44.3985C19.6181 44.3985 19.7299 44.3736 19.835 44.3211C20.1968 44.1402 20.3436 43.7004 20.1628 43.3385C19.8964 42.8056 19.7251 42.2426 19.6464 41.6584H30.3529C29.9942 44.2928 27.7311 46.33 24.9999 46.33C24.3487 46.33 23.7137 46.2148 23.1169 45.993C23.105 45.988 23.093 45.9835 23.0808 45.9791C22.6531 45.8166 22.2451 45.5996 21.8657 45.329C21.5364 45.0942 21.0791 45.1706 20.8441 45.5001C20.6092 45.8294 20.6858 46.2868 21.0151 46.5217C21.3487 46.7596 21.6998 46.9643 22.0641 47.1369C22.104 48.7223 23.4051 50 25 50C26.5957 50 27.8973 48.7209 27.9357 47.1344C30.0485 46.1313 31.5713 44.0813 31.8293 41.6584H33.3605C34.5433 41.6584 35.5057 40.6961 35.5057 39.5132V34.5173C35.5057 33.3345 34.5434 32.3721 33.3605 32.3721ZM28.0025 22.4439C28.0025 21.7818 28.5412 21.2432 29.2033 21.2432C29.8653 21.2432 30.404 21.7818 30.404 22.4439C30.404 23.1061 29.8653 23.6447 29.2033 23.6447H28.0025V22.4439ZM25 48.5352C24.4022 48.5352 23.8875 48.1766 23.6569 47.6637C24.0954 47.7504 24.5446 47.7948 25 47.7948C25.4598 47.7948 25.909 47.7485 26.3438 47.6619C26.1136 48.1758 25.5984 48.5352 25 48.5352ZM23.4623 25.1096H26.5377V32.3721H23.4623V25.1096ZM20.7966 23.6447C20.1345 23.6447 19.596 23.1061 19.596 22.4439C19.596 21.7818 20.1346 21.2432 20.7966 21.2432C21.4588 21.2432 21.9974 21.7818 21.9974 22.4439V23.6447H20.7966ZM34.0409 39.5132C34.0409 39.8884 33.7357 40.1936 33.3605 40.1936H16.6394C16.2643 40.1936 15.959 39.8884 15.959 39.5132V39.0859H34.0409V39.5132ZM34.041 34.9445H24.4271C24.0226 34.9445 23.6947 35.2725 23.6947 35.677C23.6947 36.0815 24.0226 36.4094 24.4271 36.4094H34.0409V37.6211H15.959V36.4094H21.0924C21.4969 36.4094 21.8249 36.0815 21.8249 35.677C21.8249 35.2725 21.4969 34.9445 21.0924 34.9445H15.959V34.5173C15.959 34.1421 16.2643 33.8369 16.6394 33.8369H33.3606C33.7358 33.8369 34.041 34.1421 34.041 34.5173V34.9445Z" fill="#D0004B"/>
</svg>
