<svg width="60" height="60" viewBox="0 0 60 60" fill="none" xmlns="http://www.w3.org/2000/svg">
<g clip-path="url(#clip0)">
<path d="M55.0794 5.75754C54.1275 5.09086 52.828 5.29172 52.1216 6.2148L49.5826 9.5325V2.05078C49.5826 0.920039 48.6626 0 47.5319 0H6.04749C4.91674 0 3.9967 0.920039 3.9967 2.05078V7.29023C3.9967 7.77574 4.3901 8.16914 4.87561 8.16914C5.36112 8.16914 5.75452 7.77574 5.75452 7.29023V3.00082L7.5285 4.7748C7.51901 4.84219 7.51233 4.91039 7.51233 4.98047V55.0195C7.51233 55.0895 7.51901 55.1578 7.5285 55.2252L5.75452 56.9992V11.3918C5.75452 10.9063 5.36112 10.5129 4.87561 10.5129C4.3901 10.5129 3.9967 10.9063 3.9967 11.3918V57.9492C3.9967 59.08 4.91674 60 6.04749 60H47.5319C48.6626 60 49.5826 59.08 49.5826 57.9492V18.2084L55.6615 8.69344C56.2872 7.71387 56.0316 6.42422 55.0794 5.75754ZM25.541 37.9131C24.7572 35.5896 25.7835 32.9971 27.9285 31.8826C30.6548 30.4664 33.3334 30.7934 36.3586 32.9118C40.302 35.6729 41.2639 41.1275 38.5027 45.071C34.5794 50.6741 27.9403 51.1943 24.0392 48.4627L23.0483 47.7689C21.0296 46.3553 19.6633 44.1928 19.2456 41.7784L20.6963 42.3964C22.0715 42.9824 23.6905 42.6513 24.7249 41.5721C25.6606 40.5963 25.9733 39.1942 25.541 37.9131ZM40.5359 32.555L39.7115 33.7324C39.0685 32.8821 38.286 32.1156 37.3668 31.472C36.2459 30.6871 35.1467 30.1118 34.063 29.7449L34.8722 28.5892C35.1352 28.1966 35.7153 28.0945 36.0964 28.3733L40.32 31.3308C40.7126 31.594 40.8149 32.1735 40.5359 32.555ZM40.4332 29.2642L37.9996 27.5602L40.1381 24.7657L42.3277 26.2989L40.4332 29.2642ZM36.5045 26.6216C36.0709 26.4608 35.6015 26.4145 35.1344 26.4967C34.4407 26.619 33.8363 27.0041 33.4323 27.581L32.2225 29.3089C32.2199 29.3127 32.2178 29.3166 32.2153 29.3203C30.4927 29.1136 28.802 29.448 27.1183 30.3229C25.6953 31.0622 24.5851 32.2969 23.9923 33.7995C23.4034 35.2921 23.3619 36.9525 23.8756 38.475C24.0978 39.1335 23.937 39.8542 23.456 40.3557C22.9244 40.9104 22.0924 41.0809 21.3853 40.7795L19.4565 39.9575C18.9707 39.7504 18.4276 39.8156 18.0039 40.132C17.5814 40.4475 17.3655 40.9482 17.4259 41.4714C17.7873 44.5883 19.4691 47.4084 22.0401 49.2088L23.0309 49.9025C24.7969 51.1392 27.0327 51.8194 29.3745 51.8194C33.1237 51.8194 37.1442 50.0755 39.9426 46.0792C42.2277 42.8156 42.3898 38.6906 40.7209 35.3552L41.9758 33.5631C42.3797 32.9862 42.5349 32.2864 42.4126 31.5928C42.3303 31.1255 42.1261 30.7003 41.8267 30.3479L44.3091 26.4623V54.7266H42.4489C41.9633 54.7266 41.5699 55.12 41.5699 55.6055C41.5699 56.091 41.9633 56.4844 42.4489 56.4844H44.6021C44.672 56.4844 44.7403 56.4777 44.8078 56.4682L46.5819 58.2422H6.99752L8.77151 56.4682C8.83889 56.4777 8.90721 56.4844 8.97717 56.4844H38.3473C38.8328 56.4844 39.2262 56.091 39.2262 55.6055C39.2262 55.12 38.8328 54.7266 38.3473 54.7266H9.27002V5.27344H44.3091V16.4234L36.5045 26.6216ZM44.8078 3.5318C44.7405 3.5223 44.6721 3.51562 44.6021 3.51562H8.97706C8.90709 3.51562 8.83877 3.5223 8.77139 3.5318L6.99752 1.75781H46.5819L44.8078 3.5318ZM46.0507 4.7748L47.8247 3.00094V11.8091C47.8247 11.8155 47.8255 11.8218 47.8256 11.8282L46.0669 14.1264V4.98047C46.0669 4.91051 46.0603 4.84219 46.0507 4.7748ZM47.8247 56.9992L46.0507 55.2252C46.0602 55.1578 46.0669 55.0895 46.0669 55.0195V23.7111L47.8247 20.9597V56.9992ZM54.1801 7.74691L43.2749 24.8162L41.2074 23.3685L53.5176 7.28309C53.8158 6.87645 54.46 7.32797 54.1801 7.74691Z" fill="#2E2828"/>
<path d="M17.4146 28.8867C15.3144 28.8867 13.606 30.5952 13.606 32.6953C13.606 34.7954 15.3144 36.5039 17.4146 36.5039C19.5147 36.5039 21.2232 34.7954 21.2232 32.6953C21.2232 30.5952 19.5147 28.8867 17.4146 28.8867ZM17.4146 34.7461C16.2838 34.7461 15.3638 33.8261 15.3638 32.6953C15.3638 31.5646 16.2838 30.6445 17.4146 30.6445C18.5453 30.6445 19.4653 31.5646 19.4653 32.6953C19.4653 33.8261 18.5454 34.7461 17.4146 34.7461Z" fill="#2E2828"/>
<path d="M22.3364 18.5742C20.2363 18.5742 18.5278 20.2827 18.5278 22.3828C18.5278 24.4829 20.2363 26.1914 22.3364 26.1914C24.4365 26.1914 26.145 24.4829 26.145 22.3828C26.145 20.2827 24.4365 18.5742 22.3364 18.5742ZM22.3364 24.4336C21.2057 24.4336 20.2856 23.5136 20.2856 22.3828C20.2856 21.2521 21.2057 20.332 22.3364 20.332C23.4672 20.332 24.3872 21.2521 24.3872 22.3828C24.3872 23.5136 23.4673 24.4336 22.3364 24.4336Z" fill="#2E2828"/>
<path d="M33.8208 16.9336C31.7207 16.9336 30.0122 18.6421 30.0122 20.7422C30.0122 22.8423 31.7207 24.5508 33.8208 24.5508C35.9209 24.5508 37.6294 22.8423 37.6294 20.7422C37.6294 18.6421 35.9209 16.9336 33.8208 16.9336ZM33.8208 22.793C32.6901 22.793 31.77 21.8729 31.77 20.7422C31.77 19.6114 32.6901 18.6914 33.8208 18.6914C34.9515 18.6914 35.8716 19.6114 35.8716 20.7422C35.8716 21.8729 34.9517 22.793 33.8208 22.793Z" fill="#2E2828"/>
<path d="M25.6177 11.3672C24.1638 11.3672 22.981 12.5501 22.981 14.0039C22.981 15.4577 24.1638 16.6406 25.6177 16.6406C27.0715 16.6406 28.2544 15.4577 28.2544 14.0039C28.2544 12.5501 27.0716 11.3672 25.6177 11.3672ZM25.6177 14.8828C25.133 14.8828 24.7388 14.4886 24.7388 14.0039C24.7388 13.5192 25.133 13.125 25.6177 13.125C26.1024 13.125 26.4966 13.5192 26.4966 14.0039C26.4966 14.4886 26.1024 14.8828 25.6177 14.8828Z" fill="#2E2828"/>
<path d="M16.4185 25.1367C16.4185 23.6829 15.2356 22.5 13.7817 22.5C12.3279 22.5 11.145 23.6829 11.145 25.1367C11.145 26.5905 12.3279 27.7734 13.7817 27.7734C15.2356 27.7734 16.4185 26.5905 16.4185 25.1367ZM12.9028 25.1367C12.9028 24.652 13.2971 24.2578 13.7817 24.2578C14.2664 24.2578 14.6606 24.652 14.6606 25.1367C14.6606 25.6214 14.2664 26.0156 13.7817 26.0156C13.2971 26.0156 12.9028 25.6214 12.9028 25.1367Z" fill="#2E2828"/>
<path d="M15.7739 18.0469C17.2278 18.0469 18.4107 16.864 18.4107 15.4102C18.4107 13.9563 17.2278 12.7734 15.7739 12.7734C14.3201 12.7734 13.1372 13.9563 13.1372 15.4102C13.1372 16.864 14.3201 18.0469 15.7739 18.0469ZM15.7739 14.5312C16.2586 14.5312 16.6528 14.9255 16.6528 15.4102C16.6528 15.8948 16.2586 16.2891 15.7739 16.2891C15.2892 16.2891 14.895 15.8948 14.895 15.4102C14.895 14.9255 15.2894 14.5312 15.7739 14.5312Z" fill="#2E2828"/>
</g>
<defs>
<clipPath id="clip0">
<rect width="60" height="60" fill="white"/>
</clipPath>
</defs>
</svg>
