<svg width="60" height="60" viewBox="0 0 60 60" fill="none" xmlns="http://www.w3.org/2000/svg">
<g clip-path="url(#clip0)">
<path d="M57.8363 11.1328H56.3743V9.66797C56.3743 8.8602 55.7185 8.20312 54.9123 8.20312H37.8363C36.403 8.20312 35.1283 8.89559 34.3275 9.96398C33.5267 8.89559 32.2519 8.20312 30.8187 8.20312H25.0292V7.91016C25.0292 7.10238 24.3735 6.44531 23.5673 6.44531H17.2515C16.4453 6.44531 15.7895 7.10238 15.7895 7.91016V8.20312H13.7427C12.9365 8.20312 12.2807 8.8602 12.2807 9.66797V11.1328H10.8187C9.69018 11.1328 8.77193 12.0529 8.77193 13.1836V28.9562C6.48947 29.1076 4.67836 31.0153 4.67836 33.3398V36.8555C4.67836 37.8441 5.00597 38.7572 5.55789 39.4922H4.38596C1.96749 39.4922 0 41.4635 0 43.8867V49.1602C0 51.5834 1.96749 53.5547 4.38596 53.5547H57.8363C58.9648 53.5547 59.883 52.6346 59.883 51.5039V13.1836C59.883 12.0529 58.9648 11.1328 57.8363 11.1328ZM17.5439 8.20312H23.2749V17.0508L21.9883 16.084C21.5234 15.7346 20.9665 15.56 20.4094 15.56C19.8523 15.56 19.2952 15.7348 18.8304 16.084L17.5439 17.0508V8.20312ZM14.0351 9.96094H15.7895V17.6367C15.7895 18.1951 16.0991 18.6971 16.5977 18.947C17.0937 19.1958 17.6815 19.1448 18.1287 18.8086L19.883 17.4902C20.193 17.2574 20.6257 17.2574 20.9357 17.4902L22.6901 18.8086C23.1359 19.1436 23.7226 19.1968 24.2211 18.947C24.7196 18.6973 25.0292 18.1951 25.0292 17.6367V9.96094H30.8187C32.2697 9.96094 33.4503 11.1437 33.4503 12.5977V28.9453H14.0351V12.0117V9.96094ZM10.8187 12.8906H12.2807V28.9453H10.5263V13.1836C10.5263 13.0221 10.6574 12.8906 10.8187 12.8906ZM6.43275 36.8555V33.3398C6.43275 31.8859 7.61333 30.7031 9.06433 30.7031H48.4211V32.4609H9.64912C8.84292 32.4609 8.18713 33.118 8.18713 33.9258V36.2695C8.18713 37.0773 8.84292 37.7344 9.64912 37.7344H48.4211V39.4922H9.06433C7.61333 39.4922 6.43275 38.3094 6.43275 36.8555ZM9.94152 35.9766V34.2188H46.6667V35.9766H9.94152ZM4.38596 51.7969C2.93497 51.7969 1.75439 50.6141 1.75439 49.1602V43.8867C1.75439 42.4328 2.93497 41.25 4.38596 41.25H48.4211V43.0078H4.97076C4.16456 43.0078 3.50877 43.6649 3.50877 44.4727V48.5742C3.50877 49.382 4.16456 50.0391 4.97076 50.0391H6.73743C7.22199 50.0391 7.61462 49.6455 7.61462 49.1602C7.61462 48.6748 7.22199 48.2812 6.73743 48.2812H5.26316V44.7656H46.6667V48.2812H10.831C10.3464 48.2812 9.9538 48.6748 9.9538 49.1602C9.9538 49.6455 10.3464 50.0391 10.831 50.0391H48.4211V51.7969H4.38596ZM58.1287 51.5039C58.1287 51.6654 57.9975 51.7969 57.8363 51.7969H50.1754V50.0391H54.9123C55.7185 50.0391 56.3743 49.382 56.3743 48.5742V18.457C56.3743 17.9716 55.9816 17.5781 55.4971 17.5781C55.0125 17.5781 54.6199 17.9716 54.6199 18.457V48.2812H48.7135H48.4211V44.7656H48.7135C49.5196 44.7656 50.1754 44.1086 50.1754 43.3008V40.957C50.1754 40.7487 50.1311 40.5507 50.0525 40.3711C50.1311 40.1914 50.1754 39.9935 50.1754 39.7852V37.4414C50.1754 36.6336 49.5196 35.9766 48.7135 35.9766H48.4211V34.2188H48.7135C49.5196 34.2188 50.1754 33.5617 50.1754 32.7539V30.4102C50.1754 29.6024 49.5196 28.9453 48.7135 28.9453H35.2047V12.5977C35.2047 11.1437 36.3853 9.96094 37.8363 9.96094H54.6199V14.3555C54.6199 14.8409 55.0125 15.2344 55.4971 15.2344C55.9816 15.2344 56.3743 14.8409 56.3743 14.3555V12.8906H57.8363C57.9975 12.8906 58.1287 13.0221 58.1287 13.1836V51.5039Z" fill="#2E2828"/>
<path d="M51.4035 13.4766H38.421C37.6148 13.4766 36.959 14.1336 36.959 14.9414V25.7227C36.959 26.5304 37.6148 27.1875 38.421 27.1875H51.4035C52.2097 27.1875 52.8655 26.5304 52.8655 25.7227V14.9414C52.8655 14.1336 52.2097 13.4766 51.4035 13.4766ZM51.1111 25.4297H38.7134V15.2344H51.1111V25.4297Z" fill="#2E2828"/>
<path d="M16.6667 23.6719H30.8187C31.3033 23.6719 31.6959 23.2784 31.6959 22.793C31.6959 22.3076 31.3033 21.9141 30.8187 21.9141H16.6667C16.1821 21.9141 15.7895 22.3076 15.7895 22.793C15.7895 23.2784 16.1821 23.6719 16.6667 23.6719Z" fill="#2E2828"/>
<path d="M16.6667 27.1875H30.8187C31.3033 27.1875 31.6959 26.794 31.6959 26.3086C31.6959 25.8232 31.3033 25.4297 30.8187 25.4297H16.6667C16.1821 25.4297 15.7895 25.8232 15.7895 26.3086C15.7895 26.794 16.1821 27.1875 16.6667 27.1875Z" fill="#2E2828"/>
</g>
<defs>
<clipPath id="clip0">
<rect width="59.883" height="60" fill="white"/>
</clipPath>
</defs>
</svg>
