<svg width="60" height="60" viewBox="0 0 60 60" fill="none" xmlns="http://www.w3.org/2000/svg">
<g clip-path="url(#clip0)">
<path d="M53.2031 23.2031C53.2031 17.1216 50.8501 11.58 47.0081 7.43801L48.3796 6.06656C48.7298 6.23402 49.1148 6.32531 49.5145 6.32531C50.2189 6.32531 50.8809 6.05098 51.3789 5.55305C51.8769 5.055 52.1512 4.39289 52.1512 3.68848C52.1512 2.98418 51.8769 2.32207 51.379 1.82402C50.8809 1.32598 50.2189 1.05176 49.5145 1.05176C48.8102 1.05176 48.1482 1.32598 47.6501 1.82402C46.8403 2.63391 46.6713 3.84293 47.1374 4.82262L45.7651 6.19488C41.6231 2.35301 36.0817 0 30 0C17.2057 0 6.79688 10.4088 6.79688 23.2031C6.79688 29.2848 9.14988 34.8264 12.9919 38.9682L11.6197 40.3404C10.6399 39.8741 9.4309 40.0432 8.62102 40.8531C7.59293 41.8812 7.59293 43.5539 8.62102 44.582C9.135 45.096 9.81023 45.3531 10.4855 45.3531C11.1607 45.3531 11.8358 45.0961 12.3499 44.582C13.1598 43.7721 13.3288 42.5631 12.8626 41.5833L14.2349 40.211C17.7696 43.4898 22.3239 45.6827 27.3633 46.2553V48.75H25.1367C24.3289 48.75 23.6719 49.4071 23.6719 50.2148V50.918C23.6719 53.018 21.9633 54.7266 19.8633 54.7266H18.2227C17.4149 54.7266 16.7578 55.3836 16.7578 56.1914V58.5352C16.7578 59.3429 17.4149 60 18.2227 60H33.7097C34.1952 60 34.5886 59.6065 34.5886 59.1211C34.5886 58.6357 34.1952 58.2422 33.7097 58.2422H18.5156V56.4844H19.8633C22.9325 56.4844 25.4297 53.9872 25.4297 50.918V50.5078H34.5703V50.918C34.5703 53.9872 37.0675 56.4844 40.1367 56.4844H41.4844V58.2422H37.8113C37.3257 58.2422 36.9323 58.6357 36.9323 59.1211C36.9323 59.6065 37.3257 60 37.8113 60H41.7773C42.5851 60 43.2422 59.3429 43.2422 58.5352V56.1914C43.2422 55.3836 42.5851 54.7266 41.7773 54.7266H40.1367C38.0366 54.7266 36.3281 53.018 36.3281 50.918V50.2148C36.3281 49.4071 35.6711 48.75 34.8633 48.75H32.6367V46.2555C44.1939 44.9422 53.2031 35.1059 53.2031 23.2031ZM48.893 3.06715C49.2203 2.72613 49.8088 2.72613 50.136 3.06715C50.4769 3.39434 50.4769 3.98297 50.1359 4.31004C49.8089 4.65105 49.22 4.65105 48.8931 4.31004C48.5503 3.96738 48.5503 3.4098 48.893 3.06715ZM8.55469 23.2031C8.55469 11.3781 18.175 1.75781 30 1.75781C35.597 1.75781 40.6992 3.91395 44.522 7.43813L43.279 8.68125C39.7754 5.47488 35.1124 3.51562 30 3.51562C19.1442 3.51562 10.3125 12.3473 10.3125 23.2031C10.3125 28.3155 12.2718 32.9786 15.4781 36.4821L14.235 37.7252C10.7108 33.9023 8.55469 28.8001 8.55469 23.2031ZM43.179 35.3461L40.6641 33.4607C40.5907 33.4057 40.5469 33.318 40.5469 33.2263V28.5352C40.5469 28.3737 40.6782 28.2422 40.8398 28.2422H47.2077C46.4215 30.9226 45.025 33.3443 43.179 35.3461ZM39.668 15.1172H37.4414C36.3107 15.1172 35.3906 16.0372 35.3906 17.168V24.3164C35.3906 24.4779 35.2593 24.6094 35.0977 24.6094H32.8711C31.7404 24.6094 30.8203 25.5294 30.8203 26.6602V33.457C30.8203 34.2648 30.1632 34.9219 29.3555 34.9219H27.7828C27.1216 34.9219 26.54 34.476 26.3682 33.8377L24.2937 26.1274C24.0532 25.2336 23.2389 24.6094 22.3133 24.6094H19.043C18.2352 24.6094 17.5781 23.9523 17.5781 23.1445V21.6111C17.5781 21.2718 17.6971 20.9406 17.913 20.6788L20.6123 17.4075C20.8916 17.0691 21.3034 16.875 21.7421 16.875H22.3857C22.8711 16.875 23.2646 16.4815 23.2646 15.9961C23.2646 15.5107 22.8711 15.1172 22.3857 15.1172H21.7421C20.7769 15.1172 19.8708 15.5442 19.2565 16.2888L16.5572 19.5601C16.0819 20.1361 15.8202 20.8644 15.8202 21.6111V23.1445C15.8202 24.9216 17.2658 26.3672 19.0429 26.3672H22.3131C22.4453 26.3672 22.5616 26.4564 22.5961 26.5841L24.6708 34.2945C25.0487 35.6988 26.3284 36.6797 27.7828 36.6797H29.3555C31.1324 36.6797 32.5781 35.2341 32.5781 33.457V26.6602C32.5781 26.4987 32.7095 26.3672 32.8711 26.3672H35.0977C36.2284 26.3672 37.1484 25.4471 37.1484 24.3164V17.168C37.1484 17.0065 37.2798 16.875 37.4414 16.875H39.668C39.8296 16.875 39.9609 17.0065 39.9609 17.168V18.3398C39.9609 19.4706 40.881 20.3906 42.0117 20.3906H47.7084C47.8535 21.3073 47.9297 22.2464 47.9297 23.2031C47.9297 24.3237 47.8254 25.4202 47.6277 26.4844H40.8398C39.7091 26.4844 38.7891 27.4044 38.7891 28.5352V33.2263C38.7891 33.8685 39.0957 34.482 39.6096 34.8671L41.9108 36.5924C38.7414 39.4148 34.5679 41.1328 30 41.1328C20.1136 41.1328 12.0703 33.0895 12.0703 23.2031C12.0703 16.3652 15.9185 10.4099 21.5625 7.3868V9.55078C21.5625 10.6815 22.4825 11.6016 23.6133 11.6016H31.582C31.7436 11.6016 31.875 11.733 31.875 11.8945V14.8242C31.875 14.9857 31.7436 15.1172 31.582 15.1172H26.4873C26.0019 15.1172 25.6084 15.5107 25.6084 15.9961C25.6084 16.4815 26.0019 16.875 26.4873 16.875H31.582C32.7128 16.875 33.6328 15.955 33.6328 14.8242V11.8945C33.6328 10.7638 32.7128 9.84375 31.582 9.84375H23.6133C23.4518 9.84375 23.3203 9.71227 23.3203 9.55078V6.56484C25.3859 5.7327 27.6402 5.27344 30 5.27344C38.3074 5.27344 45.3125 10.953 47.3386 18.6328H42.0117C41.8501 18.6328 41.7188 18.5013 41.7188 18.3398V17.168C41.7188 16.0372 40.7987 15.1172 39.668 15.1172ZM11.107 43.3391C10.7644 43.6818 10.2069 43.6819 9.86402 43.3391C9.52137 42.9964 9.52137 42.4388 9.86402 42.0961C10.2068 41.7534 10.7643 41.7534 11.107 42.0961C11.4497 42.4389 11.4497 42.9964 11.107 43.3391ZM16.721 37.725C20.2246 40.9314 24.8876 42.8906 30 42.8906C40.8558 42.8906 49.6875 34.0589 49.6875 23.2031C49.6875 18.0908 47.7284 13.4278 44.522 9.92426L45.765 8.68113C49.2892 12.5039 51.4453 17.6061 51.4453 23.2031C51.4453 35.0282 41.8249 44.6484 30 44.6484C24.403 44.6484 19.3008 42.4923 15.478 38.9681L16.721 37.725ZM30.8789 48.75H29.1211V46.388C29.4129 46.3989 29.7056 46.4062 30 46.4062C30.2944 46.4062 30.5871 46.3989 30.8789 46.388V48.75Z" fill="#2E2828"/>
</g>
<defs>
<clipPath id="clip0">
<rect width="60" height="60" fill="white"/>
</clipPath>
</defs>
</svg>
