<svg width="60" height="60" viewBox="0 0 60 60" fill="none" xmlns="http://www.w3.org/2000/svg">
<path d="M9.78516 40.0195H16.8164C17.3018 40.0195 17.6953 39.6261 17.6953 39.1406C17.6953 38.6551 17.3018 38.2617 16.8164 38.2617H9.78516C9.29977 38.2617 8.90625 38.6551 8.90625 39.1406C8.90625 39.6261 9.29977 40.0195 9.78516 40.0195Z" fill="#2E2828"/>
<path d="M16.8164 41.7773H9.78516C9.29977 41.7773 8.90625 42.1707 8.90625 42.6562C8.90625 43.1418 9.29977 43.5352 9.78516 43.5352H16.8164C17.3018 43.5352 17.6953 43.1418 17.6953 42.6562C17.6953 42.1707 17.3018 41.7773 16.8164 41.7773Z" fill="#2E2828"/>
<path d="M43.1836 41.7773H50.2148C50.7002 41.7773 51.0938 41.3839 51.0938 40.8984C51.0938 40.4129 50.7002 40.0195 50.2148 40.0195H43.1836C42.6982 40.0195 42.3047 40.4129 42.3047 40.8984C42.3047 41.3839 42.6982 41.7773 43.1836 41.7773Z" fill="#2E2828"/>
<path d="M33.5156 40.0195H30.8789V37.3828C30.8789 36.8973 30.4854 36.5039 30 36.5039C29.5146 36.5039 29.1211 36.8973 29.1211 37.3828V40.0195H26.4844C25.999 40.0195 25.6055 40.4129 25.6055 40.8984C25.6055 41.3839 25.999 41.7773 26.4844 41.7773H29.1211V44.4141C29.1211 44.8996 29.5146 45.293 30 45.293C30.4854 45.293 30.8789 44.8996 30.8789 44.4141V41.7773H33.5156C34.001 41.7773 34.3945 41.3839 34.3945 40.8984C34.3945 40.4129 34.001 40.0195 33.5156 40.0195Z" fill="#2E2828"/>
<path d="M32.8579 30.1373C33.3433 30.1373 33.7368 29.7439 33.7368 29.2584V20.332C33.7368 19.8465 33.3433 19.4531 32.8579 19.4531H30.95C30.4646 19.4531 30.071 19.8465 30.071 20.332C30.071 20.8175 30.4646 21.2109 30.95 21.2109H31.979V29.2584C31.979 29.7438 32.3725 30.1373 32.8579 30.1373Z" fill="#2E2828"/>
<path d="M39.3716 24.2647C37.9561 26.2871 37.1113 27.3933 36.6574 27.9876C36.0949 28.724 35.8844 28.9997 36.0368 29.4951C36.1252 29.7829 36.3437 30.0041 36.6365 30.1018C36.7531 30.1407 36.8806 30.1833 38.6072 30.1833C39.2846 30.1833 40.2085 30.1766 41.4742 30.1608C41.9596 30.1547 42.348 29.7563 42.3419 29.2708C42.3358 28.7854 41.9419 28.3943 41.452 28.4032C40.4446 28.4157 39.3712 28.4236 38.5335 28.4237C39.0364 27.7556 39.7732 26.7565 40.8116 25.2728C41.3722 24.4717 41.7373 23.717 41.8967 23.0293C41.9204 22.8982 41.9591 22.6183 41.9635 22.4855C41.9635 20.7414 40.5446 19.3224 38.8005 19.3224C37.2924 19.3224 35.9872 20.3953 35.6969 21.8735C35.6034 22.3498 35.9137 22.8118 36.39 22.9053C36.8663 22.9989 37.3282 22.6885 37.4218 22.2123C37.5506 21.5564 38.1304 21.0804 38.8006 21.0804C39.559 21.0804 40.179 21.6842 40.205 22.4362L40.1749 22.6721C40.0605 23.1307 39.7904 23.6662 39.3716 24.2647Z" fill="#2E2828"/>
<path d="M56.1914 7.67578H35.3906V5.03906C35.3906 3.58523 34.2079 2.40234 32.7539 2.40234H27.2461C25.7921 2.40234 24.6094 3.58523 24.6094 5.03906V7.67578H3.80859C1.70859 7.67578 0 9.38426 0 11.4844V48.5156C0 50.6157 1.70859 52.3242 3.80859 52.3242H8.4327L7.22414 55.0436C6.97348 55.6076 7.02457 56.2534 7.3609 56.771C7.69723 57.2886 8.26664 57.5977 8.88398 57.5977H15.5569C16.5979 57.5977 17.5437 56.983 17.9664 56.0318L19.6141 52.3242H34.2188C34.7041 52.3242 35.0977 51.9308 35.0977 51.4453C35.0977 50.9598 34.7041 50.5664 34.2188 50.5664H3.80859C2.67785 50.5664 1.75781 49.6464 1.75781 48.5156V11.4844C1.75781 10.3536 2.67785 9.43359 3.80859 9.43359H56.1914C57.3221 9.43359 58.2422 10.3536 58.2422 11.4844V48.5156C58.2422 49.6464 57.3221 50.5664 56.1914 50.5664H38.3203C37.8349 50.5664 37.4414 50.9598 37.4414 51.4453C37.4414 51.9308 37.8349 52.3242 38.3203 52.3242H40.3859L42.0336 56.0318C42.4563 56.983 43.4021 57.5977 44.4431 57.5977H51.116C51.7334 57.5977 52.3027 57.2886 52.6391 56.771C52.9755 56.2534 53.0266 55.6076 52.7759 55.0436L51.5673 52.3242H56.1914C58.2914 52.3242 60 50.6157 60 48.5156V11.4844C60 9.38426 58.2914 7.67578 56.1914 7.67578ZM16.36 55.3179C16.219 55.635 15.9038 55.8398 15.5568 55.8398H8.88398C8.87285 55.8398 8.85223 55.8398 8.83488 55.8131C8.81754 55.7864 8.82586 55.7675 8.83043 55.7573L10.3563 52.3242H17.6905L16.36 55.3179ZM26.3672 5.03906C26.3672 4.55437 26.7614 4.16016 27.2461 4.16016H32.7539C33.2386 4.16016 33.6328 4.55437 33.6328 5.03906V7.67578H26.3672V5.03906ZM51.1696 55.7575C51.1741 55.7677 51.1825 55.7865 51.1651 55.8132C51.1478 55.84 51.1271 55.84 51.116 55.84H44.4431C44.0961 55.84 43.7809 55.6351 43.6399 55.318L42.3095 52.3242H49.6437L51.1696 55.7575Z" fill="#2E2828"/>
<path d="M3.51562 33.9844V47.3438C3.51562 48.1515 4.1727 48.8086 4.98047 48.8086H55.0195C55.8273 48.8086 56.4844 48.1515 56.4844 47.3438V12.6562C56.4844 11.8485 55.8273 11.1914 55.0195 11.1914H4.98047C4.1727 11.1914 3.51562 11.8485 3.51562 12.6562V29.8828C3.51562 30.3683 3.90914 30.7617 4.39453 30.7617C4.87992 30.7617 5.27344 30.3683 5.27344 29.8828V12.9492H54.7266V33.1055H4.39453C3.90914 33.1055 3.51562 33.4989 3.51562 33.9844ZM22.5586 47.0508V34.8633H37.4414V47.0508H22.5586ZM54.7266 47.0508H39.1992V34.8633H54.7266V47.0508ZM5.27344 34.8633H20.8008V47.0508H5.27344V34.8633Z" fill="#2E2828"/>
<path d="M41.4631 15.8733H29.7641C29.0136 15.8733 28.3238 16.2825 27.9641 16.9413L22.1814 27.533L19.2771 22.9928C19.0156 22.5838 18.4721 22.4645 18.0631 22.7259C17.6543 22.9875 17.5348 23.531 17.7964 23.9399L21.5009 29.7311C21.8338 30.2878 22.7198 30.2561 23.0128 29.6787L29.507 17.7838C29.5583 17.6896 29.657 17.6311 29.7641 17.6311H41.4631C41.9485 17.6311 42.342 17.2377 42.342 16.7522C42.342 16.2667 41.9485 15.8733 41.4631 15.8733Z" fill="#2E2828"/>
</svg>
